<?xml version="1.0" encoding="utf-8"?>
<!-- Generator: Adobe Illustrator 26.3.1, SVG Export Plug-In . SVG Version: 6.00 Build 0)  -->
<svg version="1.1" id="Layer_1" xmlns="http://www.w3.org/2000/svg" xmlns:xlink="http://www.w3.org/1999/xlink" x="0px" y="0px"
	 viewBox="0 0 400 400" style="enable-background:new 0 0 400 400;" xml:space="preserve">
<style type="text/css">
	.st0{fill:#753BBD;}
</style>
<g>
	<path class="st0" d="M267.5,49H132.6c-7.9,0-14.3,6.4-14.3,14.3v37.9c2.4,6.1,8,10.7,14.9,10.9c0.2,0,0.3,0,0.5,0
		c7,0,12.9-4.3,15.4-10.4c0.2-0.5,0.7-0.8,1.2-0.8c0.5,0,1,0.3,1.3,0.9c2.5,6.1,8.4,10.3,15.4,10.3c6.9,0,12.9-4.3,15.4-10.3
		c0.2-0.6,0.7-0.8,1.2-0.8c0.5,0,1,0.3,1.2,0.8c2.5,6,8.4,10.3,15.4,10.3h0c6.9,0,12.9-4.3,15.3-10.3c0.2-0.6,0.7-0.8,1.2-0.8
		c0.5,0,1,0.3,1.2,0.8c2.5,6.1,8.4,10.3,15.4,10.3c6.9,0,12.9-4.3,15.4-10.3c0.2-0.6,0.8-0.9,1.3-0.9c0.5,0,1,0.3,1.2,0.8
		c2.5,6.1,8.4,10.4,15.4,10.4c0.2,0,0.3,0,0.5,0c6.8-0.2,12.5-4.8,14.9-10.9V63.2C281.8,55.4,275.4,49,267.5,49z M215.1,69.6h-30
		c-2.1,0-3.9-1.7-3.9-3.9c0-2.1,1.7-3.9,3.9-3.9h30c2.1,0,3.9,1.7,3.9,3.9C218.9,67.8,217.2,69.6,215.1,69.6z"/>
	<path class="st0" d="M214.6,164.2h-26.5c0.3-4.7,2.3-8.4,6.2-10.8c4.6-2.9,9.5-2.9,14.1,0C212.4,155.8,214.4,159.5,214.6,164.2z"/>
	<path class="st0" d="M171.1,231.3c-1.3-1.4-1.9-3-1.7-4.9c1-11.3,2-22.6,3-34c0.7-7.5,1.3-15,2-22.5c0-0.1,0-0.3,0.1-0.5h8.6v1
		c0,2.2,0,4.4,0,6.6c0,1.6,1.1,2.7,2.6,2.7c1.5,0,2.5-1.1,2.5-2.7c0-2.5,0-5,0-7.6h26.5v0.9c0,2.2,0,4.4,0,6.6
		c0,1.6,1.1,2.7,2.5,2.7c1.5,0,2.5-1.1,2.6-2.7c0-2.5,0-5,0-7.6h8.6c0.1,0.8,0.2,1.7,0.3,2.5c1,11.3,2,22.5,3,33.8
		c0.6,6.8,1.2,13.6,1.8,20.4c0.3,2.9-1.4,5.6-4.2,6.9c-1.6,0.8-3.3,1.1-5,1.1c-15.2,0-30.4,0-45.7,0
		C175.7,234.2,173.1,233.4,171.1,231.3z"/>
	<path class="st0" d="M295.6,190.4c0-0.9,0-1.1,0-1.1c0-0.9-0.8-1.5-1.7-1.5l-12.2,0.4v-1.7c0.3-0.1,0.5-0.2,0.7-0.4l9.2-10.8
		c0.5-0.7,0.5-1.8,0-2.5l-9.4-10.7c-0.1-0.1-0.2-0.2-0.3-0.2l11.6,0.2c0.9,0,1.6-0.6,1.6-1.5c0,0,0-0.2,0-1.1
		c0-4.8-0.5-12.3-0.5-12.3c-0.1-0.9-0.8-1.7-1.7-1.8l-6.5-0.8l4.7-6.2c0.5-0.7,0.4-1.8-0.1-2.5c0,0-5-5.6-8.5-8.9
		c-0.6-0.6-0.8-0.8-0.8-0.8c0,0,0,0,0,0v-12.8c-4,3.5-9.1,5.8-14.7,5.9c-0.2,0-0.5,0-0.7,0c-6.4,0-12.3-2.5-16.6-6.8
		c-4.3,4.3-10.2,6.8-16.6,6.8c-6.4,0-12.3-2.5-16.6-6.8c-4.3,4.3-10.2,6.8-16.6,6.8c-6.4,0-12.3-2.5-16.6-6.8
		c-4.3,4.3-10.2,6.8-16.6,6.8c-6.4,0-12.3-2.5-16.6-6.8c-4.3,4.3-10.2,6.8-16.6,6.8c-0.2,0-0.5,0-0.7,0c-5.6-0.2-10.7-2.4-14.7-5.9
		v130.3l-0.6,0.6c-3.4,3.4-8.3,9.1-8.3,9.1c-0.6,0.7-0.6,1.8-0.1,2.5l4.1,5.2l-7.2,1c-0.9,0.1-1.6,1-1.7,1.9c0,0-0.4,7.5-0.3,12.3
		c0,0.9,0,1.1,0,1.1c0,0.9,0.8,1.5,1.7,1.5l12.3-0.4v1.7c-0.3,0-0.6,0.2-0.9,0.5l-9.2,10.8c-0.5,0.7-0.5,1.8,0,2.5l9.4,10.7
		c0.1,0.1,0.2,0.2,0.3,0.2l-11.6-0.2c-0.9,0-1.6,0.6-1.6,1.5c0,0,0,0.2,0,1.1c0,4.8,0.5,12.3,0.5,12.3c0.1,0.9,0.8,1.7,1.7,1.8
		l6.5,0.7l-4.7,6.2c-0.5,0.7-0.4,1.8,0.1,2.5c0,0,5,5.6,8.5,8.9c0.6,0.6,0.8,0.8,0.8,0.8c0.6,0.6,1.6,0.5,2.2-0.1l11-11.8
		c0.6-0.6,0.6-1.6-0.1-2.2l-7.9-7l0-0.3c2.5,2.1,5.7,3.5,9.2,3.5h134.9c7.9,0,14.3-6.4,14.3-14.3v-85.5c0.1-0.1,0.2-0.2,0.4-0.4
		c3.4-3.4,8.3-9.1,8.3-9.1c0.6-0.7,0.6-1.8,0.1-2.5l-4.1-5.2l7.2-1c0.9-0.1,1.6-1,1.7-1.9C295.3,202.7,295.8,195.2,295.6,190.4z
		 M164.3,224.2c0.7-6.6,1.2-13.2,1.8-19.8c0.6-6.5,1.2-13,1.7-19.5c0.5-5.8,1-11.5,1.5-17.3c0-0.3,0-0.5,0.1-0.8
		c0.2-1.7,1.2-2.5,2.9-2.5c3.2,0,6.4,0,9.6,0h1.1c0.1-2.8,0.7-5.5,2-7.9c2.9-5.7,7.6-9,13.9-10c0.3,0,0.5-0.1,0.8-0.2h3.6
		c1.3,0.3,2.7,0.5,4,1c7.4,2.5,12.1,8.8,12.6,16.6c0,0.1,0,0.3,0.1,0.6h1c3.2,0,6.3,0,9.5,0c1.9,0,2.9,0.9,3.1,2.8
		c0.6,7.2,1.3,14.3,1.9,21.5c0.8,8.5,1.5,17,2.3,25.5c0.4,4.2,0.9,8.3,1.1,12.5c0.2,4.3-1.8,7.6-5.2,10c-2.7,1.9-5.8,2.7-9.1,2.7
		c-11.9,0-23.8,0-35.7,0c-3.7,0-7.5,0.1-11.2,0c-4.7-0.2-8.6-2.1-11.3-6.1C164.2,230.4,164,227.4,164.3,224.2z M164.8,297.3
		c0,0.2-0.1,0.5-0.3,0.7c-0.2,0.2-0.5,0.3-0.8,0.3h-3.5c-0.3,0-0.5-0.1-0.7-0.3c-0.2-0.2-0.3-0.4-0.3-0.7v-3.7
		c0-0.3,0.1-0.6,0.3-0.8c0.2-0.2,0.5-0.3,0.7-0.3h3.5c0.3,0,0.6,0.1,0.8,0.3c0.2,0.2,0.3,0.4,0.3,0.8V297.3z M217.2,281.1
		c0,0.9,0,1.8,0,2.8c0,1-0.1,1.9-0.2,2.8c-0.1,0.3-0.1,0.5-0.3,0.8c-0.1,0.2-0.4,0.4-0.7,0.6c-0.6,0.2-1.4,0.3-2.3,0.4
		c-0.9,0.1-1.9,0.1-3,0.1h-0.6c-1.1,0-2.2-0.1-3.5-0.2c-1.3-0.2-2.3-0.6-3.2-1.2c-0.7,0.6-1.6,1-2.5,1.2c-1,0.2-2,0.3-3.1,0.3h-0.6
		c-1.1,0-2.2-0.1-3.2-0.3c-1-0.2-1.9-0.6-2.7-1.2c-0.8,0.6-1.7,1-2.9,1.2c-1.1,0.2-2.2,0.3-3.2,0.3h-1.3c-0.5,0-1,0-1.6,0
		c-0.6,0-1.2-0.1-1.8-0.2c-0.6-0.1-1.2-0.3-1.7-0.5c-0.6-0.2-1-0.5-1.5-0.8c-1,0.7-2.1,1.1-3.6,1.3c-1.4,0.2-3.1,0.3-5,0.3h-10.4
		c-3.1,0-5.6-0.3-7.5-0.9c-2-0.6-3.5-1.4-4.7-2.5c-1.1-1.1-1.9-2.4-2.4-4c-0.5-1.6-0.7-3.3-0.7-5.3c0-1.4,0.2-3.1,0.5-4.9
		c0.1-0.3,0.1-0.6,0.3-0.7c0.1-0.1,0.4-0.2,0.7-0.2h3.4c0.6,0,0.8,0.3,0.8,0.9c-0.1,1.3-0.1,2.4-0.1,3.2c0,1.4,0.1,2.6,0.4,3.6
		c0.3,1.1,0.8,1.9,1.5,2.6c0.7,0.7,1.8,1.2,3.1,1.6c1.3,0.4,3,0.6,5.2,0.6h12.9c0.3,0,0.6,0,0.9,0s0.6-0.1,0.9-0.2
		c0.3-0.1,0.5-0.3,0.7-0.5c0.2-0.2,0.3-0.5,0.3-0.8v-11.4c0-0.2,0.1-0.5,0.3-0.6c0.2-0.2,0.4-0.2,0.6-0.2h4c0.2,0,0.5,0.1,0.6,0.2
		c0.2,0.2,0.3,0.4,0.3,0.6v12.2c0.1,0.2,0.2,0.3,0.5,0.4c0.2,0.1,0.5,0.2,0.8,0.3c0.3,0.1,0.6,0.1,0.9,0.1c0.3,0,0.5,0,0.8,0h2.4
		c0.6,0,1.2-0.1,1.7-0.2c0.6-0.2,0.8-0.6,0.8-1.3v-9.3c0-0.3,0.1-0.5,0.3-0.7c0.2-0.2,0.4-0.3,0.6-0.3h3.9c0.2,0,0.5,0.1,0.6,0.3
		c0.2,0.2,0.3,0.4,0.3,0.7V282c0.1,0.2,0.3,0.3,0.5,0.4c0.2,0.1,0.5,0.2,0.8,0.3c0.3,0.1,0.6,0.1,0.8,0.1c0.3,0,0.5,0,0.8,0h0.7
		c0.3,0,0.6,0,0.8,0c0.3,0,0.6-0.1,0.8-0.2c0.2-0.1,0.4-0.3,0.6-0.5c0.2-0.2,0.2-0.5,0.2-0.8v-11.2c0-0.2,0.1-0.5,0.3-0.6
		c0.2-0.2,0.4-0.3,0.6-0.3h3.9c0.2,0,0.5,0.1,0.6,0.3c0.2,0.2,0.3,0.4,0.3,0.6V282c0.2,0.4,0.6,0.6,1.2,0.7c0.6,0.1,1.3,0.1,1.9,0.1
		h1.1c0.7,0,1.2-0.1,1.5-0.2c0.2-0.1,0.4-0.6,0.4-1.3v-6.1c0-1.1,0-2.3,0-3.4c0-1.2,0-2.3-0.1-3.4c0-0.2,0.1-0.4,0.2-0.6
		c0.2-0.2,0.4-0.3,0.6-0.3h3.9c0.3,0,0.6,0.1,0.7,0.2c0.1,0.2,0.2,0.4,0.2,0.6c0,1,0.1,2,0.1,2.8c0,0.9,0,1.7,0,2.5
		c0,0.8,0,1.6,0,2.4V281.1z M260,287.5c0,0.7-0.4,1.1-1.2,1.1h-28c-1,0-2-0.1-2.8-0.3c-0.8-0.2-1.6-0.5-2.2-1
		c-0.6-0.5-1.1-1.1-1.4-2c-0.3-0.8-0.5-1.9-0.5-3.3v-27.5c0-0.2,0.1-0.5,0.3-0.6c0.2-0.2,0.4-0.3,0.7-0.3h4.1c0.3,0,0.5,0.1,0.7,0.3
		c0.2,0.2,0.2,0.4,0.2,0.6v25.8c0,1,0.2,1.7,0.6,1.9c0.4,0.3,1.1,0.4,1.9,0.4h20.7l-1.2-2.8l-0.9-1.9c-0.9-1.9-2.2-3.5-3.9-4.6
		c-1.7-1.1-4-1.7-6.9-1.7c-0.2,0-0.6,0-1.1,0c-0.5,0-1,0-1.3,0.1c-0.6,0.1-1-0.2-1-0.7v-3.4c0-0.4,0.3-0.7,0.9-0.9
		c1.5-0.3,3-0.4,4.5-0.4c1.7,0,3.2,0.2,4.7,0.5c1.4,0.4,2.8,1,4,1.8c1.2,0.8,2.4,2,3.5,3.4c1.1,1.4,2.1,3.1,3,5.2l0.6,1.3l1.7,4.3
		c0.2,0.4,0.3,1,0.3,1.6V287.5z"/>
	<path class="st0" d="M316.3,148.4c0,0-3.5-5.2-6.1-8.5c-0.8-1-1.5-1.8-1.5-1.8c-0.6-0.7-1.4-0.6-1.9,0.1l-9.1,11.8
		c-0.6,0.7-0.5,1.8,0.1,2.4l9.4,10.7c0.6,0.7,1.4,0.6,1.9-0.1l7.4-11.9C316.9,150.3,316.8,149.1,316.3,148.4z"/>
	<path class="st0" d="M304.2,229.5c0,0,1.2-6.2,1.7-10.3c0.1-1.3,0.2-2.3,0.2-2.3c0.1-0.9-0.6-1.5-1.4-1.3l-14.8,2
		c-0.9,0.1-1.6,0.9-1.6,1.7l-0.9,14.2c-0.1,0.9,0.5,1.4,1.4,1.3l13.6-3.2C303.2,231.2,304,230.3,304.2,229.5z"/>
	<path class="st0" d="M308,185.9c-0.5-0.7-1.4-0.7-1.9-0.1l-9.2,10.8c-0.6,0.6-0.6,1.7,0,2.4l9.3,11.7c0.5,0.7,1.4,0.7,1.9,0
		c0,0,0.6-0.8,1.4-1.8c2.5-3.3,6-8.6,6-8.6c0.5-0.7,0.5-2,0.1-2.7L308,185.9z"/>
	<path class="st0" d="M310.2,252.9l-13.6,3.2c-0.9,0.2-1.7,1-1.8,1.9l-3,13.7c-0.2,0.8,0.3,1.4,1.1,1.2c0,0,1.5-0.4,2.9-0.8
		c3.9-1.2,9.5-3.5,9.5-3.5c0.8-0.3,1.7-1.3,2.1-2.1c0,0,2.2-5.6,3.3-9.6c0.4-1.5,0.7-2.9,0.7-2.9C311.5,253.1,311,252.6,310.2,252.9
		z"/>
	<path class="st0" d="M287.6,130.8c0,0.9,0.8,1.6,1.7,1.7l14.8,1.7c0.9,0.1,1.5-0.5,1.4-1.3c0,0-0.1-1-0.3-2.3
		c-0.5-4.1-1.8-10.3-1.8-10.3c-0.2-0.9-1-1.7-1.9-2l-13.7-3c-0.9-0.2-1.5,0.4-1.4,1.3L287.6,130.8z"/>
	<path class="st0" d="M95.8,236.8c0,0-1.2,6.2-1.7,10.3c-0.1,1.3-0.2,2.3-0.2,2.3c-0.1,0.9,0.6,1.5,1.4,1.3l14.8-2
		c0.9-0.1,1.6-0.9,1.6-1.7l0.9-14.2c0.1-0.9-0.5-1.4-1.4-1.3l-13.6,3.2C96.8,235.1,96,236,95.8,236.8z"/>
	<path class="st0" d="M89.8,213.4l13.6-3.2c0.9-0.2,1.7-1,1.8-1.9l3-13.7c0.2-0.8-0.3-1.4-1.1-1.2c0,0-1.5,0.4-2.9,0.8
		c-3.9,1.2-9.5,3.5-9.5,3.5c-0.8,0.3-1.7,1.3-2.1,2.1c0,0-2.2,5.6-3.3,9.6c-0.4,1.5-0.7,2.9-0.7,2.9C88.5,213.2,89,213.7,89.8,213.4
		z"/>
	<path class="st0" d="M102.2,313.9l-9.4-10.7c-0.6-0.7-1.4-0.6-1.9,0.1l-7.4,11.9c-0.4,0.8-0.4,2,0.1,2.7c0,0,3.5,5.2,6.1,8.5
		c0.8,1,1.5,1.8,1.5,1.8c0.6,0.7,1.4,0.6,1.9-0.1l9.1-11.8C102.8,315.6,102.8,314.5,102.2,313.9z"/>
	<path class="st0" d="M92,280.4c0.5,0.7,1.4,0.7,1.9,0.1l9.2-10.8c0.6-0.7,0.6-1.7,0-2.4l-9.3-11.7c-0.5-0.7-1.4-0.7-1.9,0
		c0,0-0.6,0.8-1.4,1.8c-2.5,3.3-6,8.6-6,8.6c-0.5,0.7-0.5,2-0.1,2.7L92,280.4z"/>
	<path class="st0" d="M112.4,335.5c0-0.9-0.8-1.6-1.7-1.7L96,332.1c-0.9-0.1-1.5,0.5-1.4,1.3c0,0,0.1,1,0.3,2.3
		c0.5,4.1,1.8,10.3,1.8,10.3c0.2,0.9,1,1.7,1.9,2l13.7,3c0.9,0.2,1.5-0.4,1.4-1.3L112.4,335.5z"/>
</g>
</svg>
